<svg xmlns="http://www.w3.org/2000/svg" width="192" height="192" viewBox="0 0 192 192">
    <defs>
        <linearGradient id="grad1" x1="0%" y1="0%" x2="100%" y2="100%">
            <stop offset="0%" style="stop-color:#3b82f6;stop-opacity:1" />
            <stop offset="100%" style="stop-color:#1d4ed8;stop-opacity:1" />
        </linearGradient>
    </defs>

    <!-- Background circle -->
    <circle cx="96" cy="96" r="88" fill="url(#grad1)" stroke="#1e40af" stroke-width="4" />

    <!-- Meter dial -->
    <circle cx="96" cy="96" r="70" fill="none" stroke="#ffffff" stroke-width="6" opacity="0.9" />

    <!-- Meter needle -->
    <line x1="96" y1="96" x2="96" y2="40" stroke="#ffffff" stroke-width="4" stroke-linecap="round"
        transform="rotate(45 96 96)" />

    <!-- Center dot -->
    <circle cx="96" cy="96" r="8" fill="#ffffff" />

    <!-- Scale marks -->
    <g stroke="#ffffff" stroke-width="2" opacity="0.7">
        <line x1="96" y1="26" x2="96" y2="36" transform="rotate(0 96 96)" />
        <line x1="96" y1="26" x2="96" y2="36" transform="rotate(45 96 96)" />
        <line x1="96" y1="26" x2="96" y2="36" transform="rotate(90 96 96)" />
        <line x1="96" y1="26" x2="96" y2="36" transform="rotate(135 96 96)" />
        <line x1="96" y1="26" x2="96" y2="36" transform="rotate(180 96 96)" />
        <line x1="96" y1="26" x2="96" y2="36" transform="rotate(225 96 96)" />
        <line x1="96" y1="26" x2="96" y2="36" transform="rotate(270 96 96)" />
        <line x1="96" y1="26" x2="96" y2="36" transform="rotate(315 96 96)" />
    </g>

    <!-- Energy symbol -->
    <g fill="#ffffff" opacity="0.8">
        <path d="M76 120 L86 110 L96 120 L106 110 L116 120 L106 130 L96 120 L86 130 Z" />
    </g>
</svg>